<svg width="133" height="34" viewBox="0 0 133 34" version="1.1" xmlns="http://www.w3.org/2000/svg" xmlns:xlink="http://www.w3.org/1999/xlink">
<title>apple</title>
<desc>Created using Figma</desc>
<g id="Canvas" transform="translate(284 183)">
<g id="apple">
<g id="Group">
<g id="XMLID 22">
<use xlink:href="#path0_fill" transform="translate(-283.337 -182.338)" fill="#FFFFFF"/>
<mask id="mask0_outline_ins">
<use xlink:href="#path0_fill" fill="white" transform="translate(-283.337 -182.338)"/>
</mask>
<g mask="url(#mask0_outline_ins)">
<use xlink:href="#path1_stroke_2x" transform="translate(-283.337 -182.338)" fill="#999A9A"/>
</g>
</g>
<g id="XMLID 61">
<g id="Group">
<g id="Vector">
<use xlink:href="#path2_fill" transform="translate(-250.738 -176.422)" fill="#777878"/>
</g>
<g id="Vector">
<use xlink:href="#path3_fill" transform="translate(-245.842 -176.369)" fill="#777878"/>
</g>
<g id="Vector">
<use xlink:href="#path4_fill" transform="translate(-243.853 -174.661)" fill="#777878"/>
</g>
<g id="Vector">
<use xlink:href="#path5_fill" transform="translate(-239.56 -175.743)" fill="#777878"/>
</g>
<g id="Vector">
<use xlink:href="#path6_fill" transform="translate(-236.451 -174.665)" fill="#777878"/>
</g>
<g id="Vector">
<use xlink:href="#path7_fill" transform="translate(-231.263 -174.666)" fill="#777878"/>
</g>
<g id="Vector">
<use xlink:href="#path8_fill" transform="translate(-224.249 -174.665)" fill="#777878"/>
</g>
<g id="Vector">
<use xlink:href="#path9_fill" transform="translate(-218.892 -174.666)" fill="#777878"/>
</g>
</g>
<g id="Group">
<g id="Vector">
<use xlink:href="#path10_fill" transform="translate(-251.467 -165.594)"/>
</g>
<g id="Vector">
<use xlink:href="#path11_fill" transform="translate(-241.88 -163.072)"/>
</g>
<g id="Vector">
<use xlink:href="#path12_fill" transform="translate(-234.141 -163.072)"/>
</g>
<g id="Vector">
<use xlink:href="#path13_fill" transform="translate(-226.349 -165.594)"/>
</g>
<g id="Vector">
<use xlink:href="#path14_fill" transform="translate(-223.458 -163.084)"/>
</g>
<g id="Vector">
<use xlink:href="#path15_fill" transform="translate(-212.498 -165.595)"/>
</g>
<g id="Vector">
<use xlink:href="#path16_fill" transform="translate(-205.082 -163.085)"/>
</g>
<g id="Vector">
<use xlink:href="#path17_fill" transform="translate(-197.465 -165.594)"/>
</g>
<g id="Vector">
<use xlink:href="#path18_fill" transform="translate(-189.605 -163.086)"/>
</g>
<g id="Vector">
<use xlink:href="#path19_fill" transform="translate(-182.379 -163.084)"/>
</g>
<g id="Vector">
<use xlink:href="#path20_fill" transform="translate(-175.141 -163.078)"/>
</g>
<g id="Vector">
<use xlink:href="#path21_fill" transform="translate(-168.665 -164.651)"/>
</g>
<g id="Vector">
<use xlink:href="#path22_fill" transform="translate(-163.949 -163.078)"/>
</g>
</g>
</g>
<g id="XMLID 5">
<g id="XMLID 6">
<g id="XMLID 20">
<use xlink:href="#path23_fill" transform="translate(-277.706 -177.189)" fill="url(#paint23_linear)"/>
</g>
<g id="XMLID 7">
<g id="Group">
<g id="Vector">
<use xlink:href="#path24_fill" transform="translate(-274.381 -174.707)" fill="#FFFFFF"/>
</g>
</g>
</g>
</g>
</g>
</g>
</g>
</g>
<defs>
<linearGradient id="paint23_linear" x1="0" y1="0" x2="1" y2="0" gradientUnits="userSpaceOnUse" gradientTransform="matrix(0 22.3931 -22.3931 0 22.3931 0)">
<stop offset="0" stop-color="#F452FF"/>
<stop offset="1" stop-color="#832BC1"/>
</linearGradient>
<path id="path0_fill" d="M 131.462 23.099C 131.462 23.491 131.462 23.874 131.453 24.276C 131.453 24.604 131.453 24.929 131.448 25.246C 131.43 25.867 131.391 26.596 131.261 27.306C 131.146 27.976 130.948 28.585 130.658 29.161C 130.354 29.746 129.97 30.276 129.506 30.737C 129.048 31.196 128.521 31.581 127.936 31.88C 127.367 32.17 126.755 32.371 126.071 32.495C 125.361 32.62 124.636 32.656 124.026 32.675C 123.698 32.681 123.37 32.686 123.043 32.686C 122.657 32.688 122.266 32.688 121.882 32.688L 9.587 32.688C 9.195 32.688 8.806 32.688 8.41 32.686C 8.085 32.686 7.763 32.682 7.442 32.675C 6.825 32.657 6.099 32.621 5.384 32.495C 4.702 32.372 4.094 32.17 3.526 31.88C 2.946 31.586 2.419 31.199 1.951 30.731C 1.492 30.276 1.109 29.749 0.809 29.164C 0.519 28.593 0.32 27.986 0.198 27.299C 0.064 26.563 0.031 25.818 0.017 25.246C 0.00900001 25.019 0.006 24.79 0.004 24.561L -1.23978e-08 24.276L -1.23978e-08 23.099L -1.23978e-08 9.591L -1.23978e-08 8.426L 0.00600003 8.128C 0.00800003 7.902 0.011 7.674 0.019 7.443C 0.033 6.876 0.066 6.131 0.201 5.39C 0.321 4.705 0.52 4.098 0.812 3.528C 1.11 2.941 1.493 2.414 1.956 1.956C 2.42 1.492 2.948 1.108 3.528 0.811C 4.103 0.519 4.712 0.316 5.384 0.197C 6.114 0.068 6.866 0.035 7.434 0.017L 8.411 0.00300002C 8.805 2.14204e-08 9.195 4.76837e-10 9.586 4.76837e-10L 121.881 4.76837e-10C 122.265 4.76837e-10 122.656 2.14204e-08 123.04 0.00300002L 123.094 0.005L 124.018 0.017C 124.593 0.034 125.345 0.068 126.069 0.197C 126.745 0.316 127.354 0.518 127.934 0.811C 128.518 1.109 129.046 1.493 129.505 1.956C 129.967 2.417 130.351 2.945 130.652 3.527C 130.945 4.106 131.144 4.716 131.258 5.396C 131.388 6.097 131.427 6.828 131.445 7.441C 131.45 7.766 131.45 8.092 131.45 8.43C 131.459 8.817 131.459 9.201 131.459 9.59L 131.459 23.099L 131.462 23.099Z"/>
<path id="path1_stroke_2x" d="M 131.462 23.099L 132.462 23.099L 132.462 22.099L 131.462 22.099L 131.462 23.099ZM 131.453 24.276L 130.453 24.2536L 130.453 24.2648L 130.453 24.276L 131.453 24.276ZM 131.448 25.246L 132.448 25.275L 132.448 25.2618L 131.448 25.246ZM 131.261 27.306L 130.277 27.1259L 130.275 27.1368L 131.261 27.306ZM 130.658 29.161L 131.545 29.6222L 131.551 29.6107L 130.658 29.161ZM 129.506 30.737L 128.801 30.0276L 128.798 30.0307L 129.506 30.737ZM 127.936 31.88L 128.39 32.771L 128.391 32.7704L 127.936 31.88ZM 126.071 32.495L 126.244 33.4799L 126.249 33.479L 126.071 32.495ZM 124.026 32.675L 124.044 33.6749L 124.057 33.6745L 124.026 32.675ZM 123.043 32.686L 123.043 31.686L 123.038 31.686L 123.043 32.686ZM 8.41 32.686L 8.41505 31.686L 8.41 31.686L 8.41 32.686ZM 7.442 32.675L 7.41284 33.6746L 7.4202 33.6748L 7.442 32.675ZM 5.384 32.495L 5.20651 33.4791L 5.21045 33.4798L 5.384 32.495ZM 3.526 31.88L 3.98073 30.9894L 3.97813 30.988L 3.526 31.88ZM 1.951 30.731L 2.65811 30.0239L 2.65501 30.0208L 1.951 30.731ZM 0.809 29.164L -0.0826057 29.6168L -0.0808174 29.6203L 0.809 29.164ZM 0.198 27.299L 1.1826 27.1242L 1.18183 27.1199L 0.198 27.299ZM 0.017 25.246L 1.01676 25.2215L 1.01638 25.2108L 0.017 25.246ZM 0.004 24.561L 1.00398 24.5523L 1.0039 24.547L 0.004 24.561ZM -1.23978e-08 24.276L -1.0001 24.276L -0.999902 24.29L -1.23978e-08 24.276ZM -1.23978e-08 8.426L -0.999797 8.40587L -1 8.41593L -1 8.426L -1.23978e-08 8.426ZM 0.00600003 8.128L 1.00586 8.14813L 1.00596 8.13685L 0.00600003 8.128ZM 0.019 7.443L 1.01845 7.47761L 1.0187 7.46768L 0.019 7.443ZM 0.201 5.39L 1.18483 5.56924L 1.186 5.56255L 0.201 5.39ZM 0.812 3.528L 1.70202 3.98394L 1.70368 3.98067L 0.812 3.528ZM 1.956 1.956L 2.65927 2.66695L 2.66311 2.66311L 1.956 1.956ZM 3.528 0.811L 3.07521 -0.0806236L 3.07221 -0.0790889L 3.528 0.811ZM 5.384 0.197L 5.20998 -0.787743L 5.20963 -0.78768L 5.384 0.197ZM 7.434 0.017L 7.41967 -0.982897L 7.411 -0.982773L 7.40233 -0.982498L 7.434 0.017ZM 8.411 0.00300002L 8.40339 -0.996994L 8.39667 -0.996897L 8.411 0.00300002ZM 123.04 0.00300002L 123.077 -0.996315L 123.062 -0.996855L 123.048 -0.996969L 123.04 0.00300002ZM 123.094 0.005L 123.057 1.00431L 123.069 1.00476L 123.081 1.00492L 123.094 0.005ZM 124.018 0.017L 124.048 -0.982563L 124.039 -0.982808L 124.031 -0.982916L 124.018 0.017ZM 126.069 0.197L 125.894 1.1815L 125.896 1.18186L 126.069 0.197ZM 127.934 0.811L 128.389 -0.0797439L 128.385 -0.0815728L 127.934 0.811ZM 129.505 1.956L 128.795 2.66004L 128.799 2.66387L 129.505 1.956ZM 130.652 3.527L 131.544 3.07546L 131.54 3.06762L 130.652 3.527ZM 131.258 5.396L 130.272 5.56134L 130.273 5.56985L 130.275 5.57834L 131.258 5.396ZM 131.445 7.441L 132.445 7.42562L 132.445 7.41165L 131.445 7.441ZM 131.45 8.43L 130.45 8.43L 130.45 8.44163L 130.45 8.45325L 131.45 8.43ZM 131.459 23.099L 130.459 23.099L 130.459 24.099L 131.459 24.099L 131.459 23.099ZM 130.462 23.099C 130.462 23.491 130.462 23.8628 130.453 24.2536L 132.453 24.2984C 132.462 23.8852 132.462 23.491 132.462 23.099L 130.462 23.099ZM 130.453 24.276C 130.453 24.604 130.453 24.9211 130.448 25.2302L 132.448 25.2618C 132.453 24.9369 132.453 24.604 132.453 24.276L 130.453 24.276ZM 130.448 25.217C 130.431 25.8258 130.398 26.479 130.277 27.1259L 132.245 27.4861C 132.384 26.713 132.429 25.9082 132.448 25.275L 130.448 25.217ZM 130.275 27.1368C 130.175 27.7362 130.023 28.2045 129.765 28.7113L 131.551 29.6107C 131.873 28.9655 132.117 28.2158 132.247 27.4752L 130.275 27.1368ZM 129.771 28.6999C 129.503 29.2207 129.21 29.6258 128.801 30.0276L 130.211 31.4464C 130.73 30.9262 131.205 30.2713 131.545 29.6221L 129.771 28.6999ZM 128.798 30.0307C 128.397 30.4368 127.997 30.7294 127.481 30.9896L 128.391 32.7704C 129.045 32.4326 129.699 31.9552 130.214 31.4433L 128.798 30.0307ZM 127.482 30.989C 126.983 31.2468 126.509 31.4017 125.893 31.511L 126.249 33.479C 127.001 33.3403 127.751 33.0932 128.39 32.771L 127.482 30.989ZM 125.898 31.5101C 125.249 31.6263 124.596 31.6568 123.995 31.6755L 124.057 33.6745C 124.676 33.6552 125.473 33.6137 126.244 33.4799L 125.898 31.5101ZM 124.008 31.6752C 123.681 31.6811 123.362 31.686 123.043 31.686L 123.043 33.686C 123.378 33.686 123.715 33.6809 124.044 33.6748L 124.008 31.6752ZM 123.038 31.686C 122.654 31.688 122.266 31.688 121.882 31.688L 121.882 33.688C 122.266 33.688 122.66 33.688 123.048 33.686L 123.038 31.686ZM 121.882 31.688L 9.587 31.688L 9.587 33.688L 121.882 33.688L 121.882 31.688ZM 9.587 31.688C 9.195 31.688 8.80852 31.688 8.41505 31.686L 8.40495 33.686C 8.80348 33.688 9.195 33.688 9.587 33.688L 9.587 31.688ZM 8.41 31.686C 8.09121 31.686 7.78011 31.6821 7.4638 31.6752L 7.4202 33.6748C 7.74589 33.6819 8.07879 33.686 8.41 33.686L 8.41 31.686ZM 7.47116 31.6754C 6.86435 31.6578 6.21076 31.6273 5.55755 31.5102L 5.21045 33.4798C 5.98724 33.6147 6.78565 33.6562 7.41284 33.6746L 7.47116 31.6754ZM 5.56149 31.5109C 4.94902 31.403 4.48011 31.2475 3.98072 30.9894L 3.07128 32.7706C 3.70789 33.0925 4.45498 33.341 5.20651 33.4791L 5.56149 31.5109ZM 3.97813 30.988C 3.46978 30.7341 3.07038 30.4402 2.65811 30.0239L 1.24389 31.4381C 1.76762 31.9578 2.42222 32.4379 3.07387 32.772L 3.97813 30.988ZM 2.65501 30.0208C 2.25094 29.6248 1.96092 29.2253 1.69882 28.7077L -0.0808174 29.6203C 0.25708 30.2727 0.733063 30.9272 1.24699 31.4412L 2.65501 30.0208ZM 1.7006 28.7112C 1.44262 28.2097 1.28983 27.7422 1.1826 27.1242L -0.786595 27.4738C -0.649827 28.2298 -0.404624 28.9763 -0.0825989 29.6168L 1.7006 28.7112ZM 1.18183 27.1199C 1.05771 26.4511 1.03041 25.7836 1.0167 25.2215L -0.982701 25.2705C -0.968409 25.8524 -0.929714 26.6749 -0.785827 27.4781L 1.18183 27.1199ZM 1.01638 25.2108C 1.00871 24.9948 1.00594 24.7791 1.00396 24.5523L -0.995962 24.5697C -0.99394 24.8009 -0.990708 25.0432 -0.98238 25.2812L 1.01638 25.2108ZM 1.0039 24.547L 0.999902 24.262L -0.999902 24.29L -0.995902 24.575L 1.0039 24.547ZM 1 24.276L 1 23.099L -1 23.099L -1 24.276L 1 24.276ZM 1 23.099L 1 9.591L -1 9.591L -1 23.099L 1 23.099ZM 1 9.591L 1 8.426L -1 8.426L -1 9.591L 1 9.591ZM 0.999797 8.44613L 1.0058 8.14813L -0.993797 8.10787L -0.999797 8.40587L 0.999797 8.44613ZM 1.00596 8.13685C 1.00794 7.913 1.01071 7.69788 1.0184 7.47761L -0.980401 7.40839C -0.988715 7.65011 -0.991939 7.891 -0.993961 8.11915L 1.00596 8.13685ZM 1.0187 7.46768C 1.03241 6.91047 1.05971 6.243 1.18481 5.56924L -0.782806 5.21076C -0.927708 6.019 -0.966406 6.84153 -0.980695 7.41832L 1.0187 7.46768ZM 1.186 5.56255C 1.29111 4.94766 1.44295 4.48291 1.70201 3.98394L -0.0780124 3.07206C -0.402953 3.71309 -0.64911 4.46234 -0.784 5.21745L 1.186 5.56255ZM 1.70368 3.98067C 1.96299 3.46293 2.25159 3.06556 2.65926 2.66694L 1.25274 1.24506C 0.734405 1.76244 0.25701 2.41907 -0.0796762 3.07533L 1.70368 3.98067ZM 2.66311 2.66311C 3.06963 2.25225 3.47156 1.95999 3.98379 1.70109L 3.07221 -0.0790889C 2.42444 0.256012 1.77037 0.731749 1.24889 1.24889L 2.66311 2.66311ZM 3.98079 1.70262C 4.48856 1.44168 4.95796 1.28528 5.55837 1.18168L 5.20963 -0.78768C 4.46604 -0.65328 3.71744 -0.403681 3.07521 -0.0806186L 3.98079 1.70262ZM 5.55802 1.18174C 6.22316 1.06202 6.90376 1.03429 7.46567 1.0165L 7.40233 -0.982498C 6.82824 -0.964287 6.00484 -0.926024 5.20998 -0.787743L 5.55802 1.18174ZM 7.44833 1.0169L 8.42533 1.0029L 8.39667 -0.996897L 7.41967 -0.982897L 7.44833 1.0169ZM 8.41861 1.00297C 8.80881 0.999993 9.195 1 9.586 1L 9.586 -1C 9.195 -1 8.80119 -0.999993 8.40339 -0.996971L 8.41861 1.00297ZM 9.586 1L 121.881 1L 121.881 -1L 9.586 -1L 9.586 1ZM 121.881 1C 122.265 1 122.652 0.999992 123.032 1.00297L 123.048 -0.996969C 122.66 -0.999992 122.265 -1 121.881 -1L 121.881 1ZM 123.003 1.00231L 123.057 1.00431L 123.131 -0.994315L 123.077 -0.996315L 123.003 1.00231ZM 123.081 1.00492L 124.005 1.01692L 124.031 -0.982916L 123.107 -0.994916L 123.081 1.00492ZM 123.988 1.01656C 124.556 1.0333 125.234 1.06187 125.894 1.18149L 126.244 -0.787495C 125.456 -0.925873 124.63 -0.965302 124.048 -0.982563L 123.988 1.01656ZM 125.896 1.18186C 126.5 1.28559 126.97 1.44137 127.483 1.70357L 128.385 -0.0815728C 127.738 -0.405371 126.99 -0.653586 126.242 -0.787857L 125.896 1.18186ZM 127.479 1.70174C 127.995 1.96136 128.395 2.25184 128.795 2.66003L 130.215 1.25197C 129.697 0.734158 129.041 0.256638 128.389 -0.0797366L 127.479 1.70174ZM 128.799 2.66387C 129.207 3.06704 129.5 3.47028 129.764 3.98638L 131.54 3.06762C 131.202 2.41972 130.727 1.76696 130.211 1.24813L 128.799 2.66387ZM 129.76 3.97852C 130.021 4.48795 130.173 4.95441 130.272 5.56134L 132.244 5.23066C 132.115 4.47759 131.869 3.72405 131.544 3.07548L 129.76 3.97852ZM 130.275 5.57834C 130.395 6.21506 130.428 6.86931 130.445 7.47035L 132.445 7.41165C 132.426 6.78669 132.381 5.97894 132.241 5.21366L 130.275 5.57834ZM 130.445 7.45638C 130.45 7.7737 130.45 8.09201 130.45 8.43L 132.45 8.43C 132.45 8.09199 132.45 7.7583 132.445 7.42562L 130.445 7.45638ZM 130.45 8.45325C 130.459 8.82861 130.459 9.20098 130.459 9.59L 132.459 9.59C 132.459 9.20102 132.459 8.80539 132.45 8.40675L 130.45 8.45325ZM 130.459 9.59L 130.459 23.099L 132.459 23.099L 132.459 9.59L 130.459 9.59ZM 131.459 24.099L 131.462 24.099L 131.462 22.099L 131.459 22.099L 131.459 24.099Z"/>
<path id="path2_fill" d="M 3.917 6.451L 1.0376e-06 6.451L 1.0376e-06 6.86645e-08L 0.805001 6.86645e-08L 0.805001 5.727L 3.917 5.727L 3.917 6.451Z"/>
<path id="path3_fill" d="M 9.46045e-07 0.483C 9.46045e-07 0.215 0.218999 4.19617e-08 0.482999 4.19617e-08C 0.750999 4.19617e-08 0.969998 0.215 0.969998 0.483C 0.969998 0.747 0.750999 0.966 0.482999 0.966C 0.218999 0.966 9.46045e-07 0.747 9.46045e-07 0.483ZM 0.0939989 1.748L 0.871999 1.748L 0.871999 6.398L 0.0939989 6.398L 0.0939989 1.748Z"/>
<path id="path4_fill" d="M 1.86 -2.5177e-07C 2.817 -2.5177e-07 3.537 0.563 3.564 1.337L 2.822 1.337C 2.777 0.903 2.402 0.635 1.834 0.635C 1.271 0.635 0.890998 0.904 0.890998 1.302C 0.890998 1.615 1.137 1.821 1.664 1.954L 2.384 2.128C 3.323 2.365 3.662 2.696 3.662 3.371C 3.662 4.171 2.893 4.735 1.811 4.735C 0.796 4.735 0.0719994 4.19 -6.40869e-07 3.376L 0.777999 3.376C 0.853999 3.85 1.234 4.1 1.86 4.1C 2.486 4.1 2.88 3.841 2.88 3.43C 2.88 3.108 2.688 2.938 2.165 2.8L 1.347 2.59C 0.529 2.38 0.126998 1.968 0.126998 1.342C 0.124998 0.554 0.841 -2.5177e-07 1.86 -2.5177e-07Z"/>
<path id="path5_fill" d="M 1.471 -3.05176e-08L 1.471 1.122L 2.374 1.122L 2.374 1.762L 1.471 1.762L 1.471 4.52C 1.471 4.945 1.65 5.137 2.048 5.137C 2.137 5.137 2.316 5.123 2.37 5.115L 2.37 5.768C 2.276 5.79 2.061 5.804 1.878 5.804C 1.024 5.804 0.692999 5.455 0.692999 4.561L 0.692999 1.762L -1.37329e-06 1.762L -1.37329e-06 1.122L 0.692999 1.122L 0.692999 -3.05176e-08L 1.471 -3.05176e-08Z"/>
<path id="path6_fill" d="M 4.078 3.362C 3.949 4.167 3.139 4.739 2.142 4.739C 0.828002 4.739 -2.13623e-07 3.831 -2.13623e-07 2.387C -2.13623e-07 0.943 0.831999 3.8147e-08 2.105 3.8147e-08C 3.353 3.8147e-08 4.135 0.876 4.135 2.285L 4.135 2.58L 0.799999 2.58L 0.799999 2.625C 0.799999 3.497 1.341 4.064 2.159 4.064C 2.731 4.064 3.183 3.791 3.312 3.362L 4.078 3.362ZM 0.806 1.972L 3.332 1.972C 3.314 1.194 2.818 0.676 2.094 0.676C 1.374 0.675 0.855 1.198 0.806 1.972Z"/>
<path id="path7_fill" d="M -4.88281e-07 0.0449997L 0.733001 0.0449997L 0.733001 0.805L 0.750999 0.805C 1.042 0.273 1.506 -3.66211e-07 2.226 -3.66211e-07C 3.246 -3.66211e-07 3.836 0.657 3.836 1.712L 3.836 4.694L 3.058 4.694L 3.058 1.851C 3.058 1.1 2.709 0.688 1.985 0.688C 1.234 0.688 0.777999 1.211 0.777999 1.998L 0.777999 4.694L -4.88281e-07 4.694L -4.88281e-07 0.0449997Z"/>
<path id="path8_fill" d="M -5.49316e-07 2.37C -5.49316e-07 0.921 0.839998 3.8147e-08 2.155 3.8147e-08C 3.465 3.8147e-08 4.305 0.921 4.305 2.37C 4.305 3.814 3.465 4.74 2.155 4.74C 0.840998 4.739 -5.49316e-07 3.813 -5.49316e-07 2.37ZM 3.514 2.37C 3.514 1.31 3.009 0.684 2.155 0.684C 1.297 0.684 0.791 1.314 0.791 2.37C 0.791 3.43 1.301 4.056 2.155 4.056C 3.009 4.056 3.514 3.429 3.514 2.37Z"/>
<path id="path9_fill" d="M 1.70898e-06 0.0449997L 0.733003 0.0449997L 0.733003 0.805L 0.751001 0.805C 1.042 0.273 1.506 -3.66211e-07 2.226 -3.66211e-07C 3.246 -3.66211e-07 3.836 0.657 3.836 1.712L 3.836 4.694L 3.058 4.694L 3.058 1.851C 3.058 1.1 2.709 0.688 1.985 0.688C 1.234 0.688 0.778002 1.211 0.778002 1.998L 0.778002 4.694L 1.70898e-06 4.694L 1.70898e-06 0.0449997Z"/>
<path id="path10_fill" d="M 6.074 6.989L 2.423 6.989L 1.547 9.578L 9.46045e-07 9.578L 3.458 1.37329e-07L 5.064 1.37329e-07L 8.522 9.578L 6.949 9.578L 6.074 6.989ZM 2.802 5.795L 5.696 5.795L 4.269 1.593L 4.229 1.593L 2.802 5.795Z"/>
<path id="path11_fill" d="M 6.578 3.565C 6.578 5.735 5.416 7.129 3.664 7.129C 2.668 7.129 1.879 6.684 1.467 5.907L 1.434 5.907L 1.434 9.365L -1.06812e-06 9.365L -1.06812e-06 0.072L 1.387 0.072L 1.387 1.234L 1.413 1.234C 1.811 0.484001 2.661 -5.0354e-07 3.637 -5.0354e-07C 5.409 0.000999497 6.578 1.401 6.578 3.565ZM 5.104 3.565C 5.104 2.151 4.374 1.222 3.259 1.222C 2.164 1.222 1.427 2.171 1.427 3.565C 1.427 4.972 2.164 5.915 3.259 5.915C 4.374 5.915 5.104 4.992 5.104 3.565Z"/>
<path id="path12_fill" d="M 6.578 3.565C 6.578 5.735 5.416 7.129 3.664 7.129C 2.668 7.129 1.879 6.684 1.467 5.907L 1.434 5.907L 1.434 9.365L 1.15967e-06 9.365L 1.15967e-06 0.072L 1.387 0.072L 1.387 1.234L 1.413 1.234C 1.811 0.484001 2.661 -5.0354e-07 3.637 -5.0354e-07C 5.409 0.000999497 6.578 1.401 6.578 3.565ZM 5.104 3.565C 5.104 2.151 4.374 1.222 3.259 1.222C 2.164 1.222 1.427 2.171 1.427 3.565C 1.427 4.972 2.164 5.915 3.259 5.915C 4.374 5.915 5.104 4.992 5.104 3.565Z"/>
<path id="path13_fill" d="M 9.76563e-07 1.37329e-07L 1.434 1.37329e-07L 1.434 9.578L 9.76563e-07 9.578L 9.76563e-07 1.37329e-07Z"/>
<path id="path14_fill" d="M 6.299 5.018C 6.107 6.286 4.872 7.155 3.292 7.155C 1.261 7.155 -1.83105e-07 5.794 -1.83105e-07 3.611C -1.83105e-07 1.421 1.268 3.66211e-07 3.232 3.66211e-07C 5.164 3.66211e-07 6.378 1.327 6.378 3.445L 6.378 3.936L 1.446 3.936L 1.446 4.022C 1.446 5.217 2.196 6 3.324 6C 4.12 6 4.744 5.622 4.937 5.018L 6.299 5.018ZM 1.454 2.933L 4.945 2.933C 4.912 1.864 4.228 1.161 3.233 1.161C 2.244 1.161 1.527 1.878 1.454 2.933Z"/>
<path id="path15_fill" d="M 3.591 0.00100014C 5.449 0.00100014 6.744 1.282 6.744 3.147C 6.744 5.019 5.423 6.306 3.545 6.306L 1.487 6.306L 1.487 9.578L -1.09863e-06 9.578L -1.09863e-06 6.86646e-07L 3.591 6.86646e-07L 3.591 0.00100014ZM 1.487 5.059L 3.193 5.059C 4.487 5.059 5.224 4.362 5.224 3.154C 5.224 1.946 4.487 1.256 3.2 1.256L 1.488 1.256L 1.488 5.059L 1.487 5.059Z"/>
<path id="path16_fill" d="M -7.32422e-07 3.578C -7.32422e-07 1.381 1.294 9.15527e-07 3.312 9.15527e-07C 5.336 9.15527e-07 6.624 1.38 6.624 3.578C 6.624 5.782 5.343 7.156 3.312 7.156C 1.281 7.156 -7.32422e-07 5.782 -7.32422e-07 3.578ZM 5.164 3.578C 5.164 2.071 4.474 1.182 3.312 1.182C 2.15 1.182 1.46 2.078 1.46 3.578C 1.46 5.091 2.15 5.974 3.312 5.974C 4.474 5.974 5.164 5.091 5.164 3.578Z"/>
<path id="path17_fill" d="M 3.66211e-06 6.087C 3.66211e-06 3.93 1.188 2.523 2.92 2.523C 3.922 2.523 4.712 2.987 5.11 3.757L 5.136 3.757L 5.136 1.37329e-07L 6.576 1.37329e-07L 6.576 9.578L 5.182 9.578L 5.182 8.39L 5.156 8.39C 4.744 9.186 3.948 9.651 2.932 9.651C 1.188 9.652 3.66211e-06 8.244 3.66211e-06 6.087ZM 1.467 6.087C 1.467 7.521 2.197 8.437 3.312 8.437C 4.414 8.437 5.15 7.508 5.15 6.087C 5.15 4.68 4.413 3.744 3.312 3.744C 2.197 3.744 1.467 4.667 1.467 6.087Z"/>
<path id="path18_fill" d="M 4.938 2.49C 4.812 1.753 4.234 1.202 3.292 1.202C 2.19 1.202 1.46 2.125 1.46 3.578C 1.46 5.065 2.197 5.961 3.305 5.961C 4.195 5.961 4.779 5.516 4.938 4.707L 6.319 4.707C 6.159 6.174 4.985 7.156 3.292 7.156C 1.301 7.156 -3.35693e-06 5.795 -3.35693e-06 3.578C -3.35693e-06 1.408 1.301 -4.42505e-07 3.279 -4.42505e-07C 5.071 -4.42505e-07 6.186 1.128 6.306 2.489L 4.938 2.489L 4.938 2.49Z"/>
<path id="path19_fill" d="M 2.19727e-06 5.07C 2.19727e-06 3.849 0.935998 3.132 2.675 3.026L 4.533 2.92L 4.533 2.389C 4.533 1.599 4.009 1.175 3.099 1.175C 2.349 1.175 1.798 1.56 1.685 2.157L 0.343996 2.157C 0.383996 0.909 1.552 3.66211e-07 3.139 3.66211e-07C 4.851 3.66211e-07 5.959 0.896 5.959 2.283L 5.959 7.069L 4.586 7.069L 4.586 5.921L 4.553 5.921C 4.161 6.671 3.291 7.169 2.349 7.169C 0.962001 7.168 2.19727e-06 6.311 2.19727e-06 5.07ZM 4.533 4.453L 4.533 3.915L 2.86 4.021C 1.931 4.074 1.44 4.433 1.44 5.037C 1.44 5.621 1.951 6.033 2.748 6.033C 3.764 6.033 4.533 5.356 4.533 4.453Z"/>
<path id="path20_fill" d="M 2.914 8.8501e-07C 4.46 8.8501e-07 5.568 0.856001 5.602 2.091L 4.255 2.091C 4.194 1.474 3.671 1.095 2.874 1.095C 2.098 1.095 1.58 1.453 1.58 1.998C 1.58 2.416 1.925 2.695 2.648 2.874L 3.823 3.146C 5.23 3.484 5.761 4.002 5.761 5.024C 5.761 6.285 4.566 7.148 2.86 7.148C 1.214 7.148 0.106001 6.305 1.15967e-06 5.03L 1.42 5.03C 1.52 5.7 2.058 6.059 2.927 6.059C 3.783 6.059 4.322 5.707 4.322 5.15C 4.322 4.718 4.056 4.486 3.326 4.3L 2.078 3.995C 0.816996 3.689 0.180001 3.046 0.180001 2.077C 0.179001 0.843001 1.287 8.8501e-07 2.914 8.8501e-07Z"/>
<path id="path21_fill" d="M 2.456 9.30786e-07L 2.456 1.652L 3.783 1.652L 3.783 2.787L 2.456 2.787L 2.456 6.637C 2.456 7.235 2.722 7.513 3.306 7.513C 3.452 7.513 3.684 7.493 3.777 7.48L 3.777 8.608C 3.618 8.648 3.299 8.674 2.981 8.674C 1.567 8.674 1.016 8.143 1.016 6.789L 1.016 2.787L -9.15527e-07 2.787L -9.15527e-07 1.652L 1.016 1.652L 1.016 9.30786e-07L 2.456 9.30786e-07Z"/>
<path id="path22_fill" d="M 2.914 8.8501e-07C 4.46 8.8501e-07 5.568 0.856001 5.602 2.091L 4.255 2.091C 4.194 1.474 3.671 1.095 2.874 1.095C 2.098 1.095 1.58 1.453 1.58 1.998C 1.58 2.416 1.925 2.695 2.648 2.874L 3.823 3.146C 5.23 3.484 5.761 4.002 5.761 5.024C 5.761 6.285 4.566 7.148 2.86 7.148C 1.214 7.148 0.106003 6.305 2.50244e-06 5.03L 1.42 5.03C 1.52 5.7 2.058 6.059 2.927 6.059C 3.783 6.059 4.322 5.707 4.322 5.15C 4.322 4.718 4.056 4.486 3.326 4.3L 2.078 3.995C 0.816998 3.689 0.180003 3.046 0.180003 2.077C 0.178003 0.843001 1.287 8.8501e-07 2.914 8.8501e-07Z"/>
<path id="path23_fill" fill-rule="evenodd" d="M 21.95 19.409C 21.732 19.962 21.23 20.74 20.518 21.289C 20.107 21.606 19.616 21.908 18.941 22.108C 18.222 22.321 17.337 22.393 16.235 22.393L 6.158 22.393C 5.056 22.393 4.171 22.321 3.452 22.108C 2.778 21.908 2.287 21.605 1.875 21.289C 1.163 20.741 0.66 19.962 0.443 19.409C 0.005 18.295 1.48773e-07 17.031 1.48773e-07 16.235L 1.48773e-07 6.158C 1.48773e-07 5.362 0.00399998 4.098 0.443 2.984C 0.661 2.431 1.163 1.653 1.875 1.104C 2.286 0.788 2.777 0.485 3.452 0.285C 4.171 0.0720002 5.056 -1.297e-07 6.158 -1.297e-07L 16.235 -1.297e-07C 17.337 -1.297e-07 18.222 0.0720002 18.941 0.285C 19.615 0.485 20.106 0.788 20.518 1.104C 21.23 1.652 21.733 2.431 21.95 2.984C 22.388 4.098 22.393 5.362 22.393 6.158L 22.393 16.235C 22.393 17.031 22.389 18.295 21.95 19.409Z"/>
<path id="path24_fill" d="M 9.49462 10.389C 9.15862 10.035 8.56861 9.80704 7.87161 9.80704C 7.17461 9.80704 6.58462 10.034 6.24862 10.389C 6.07362 10.574 5.98062 10.764 5.95162 11.034C 5.89462 11.557 5.92662 12.008 5.98762 12.728C 6.04562 13.414 6.15661 14.329 6.30161 15.262C 6.40461 15.925 6.48862 16.283 6.56462 16.54C 6.68762 16.955 7.14961 17.319 7.87161 17.319C 8.59361 17.319 9.05462 16.956 9.17862 16.54C 9.25462 16.284 9.33862 15.926 9.44162 15.262C 9.58662 14.33 9.69762 13.415 9.75562 12.728C 9.81662 12.008 9.84862 11.557 9.79262 11.034C 9.76362 10.764 9.67062 10.574 9.49462 10.389ZM 6.04162 7.23204C 6.04162 8.24403 6.86161 9.06504 7.87461 9.06504C 8.88762 9.06504 9.70761 8.24504 9.70761 7.23204C 9.70761 6.22004 8.88661 5.39904 7.87461 5.39904C 6.86261 5.39904 6.04162 6.22004 6.04162 7.23204ZM 7.85162 3.59323e-05C 3.56562 0.0120359 0.053615 3.48904 0.000614958 7.77504C -0.042385 11.247 2.17361 14.217 5.26861 15.305C 5.34361 15.331 5.41962 15.269 5.40862 15.19C 5.36762 14.921 5.32961 14.65 5.29461 14.383C 5.28261 14.289 5.22262 14.208 5.13562 14.17C 2.68962 13.101 0.981615 10.648 1.00862 7.80704C 1.04462 4.07804 4.08961 1.03804 7.81861 1.00704C 11.6306 0.976036 14.7426 4.06904 14.7426 7.87404C 14.7426 10.687 13.0416 13.11 10.6146 14.17C 10.5276 14.208 10.4676 14.289 10.4556 14.383C 10.4206 14.649 10.3826 14.92 10.3416 15.189C 10.3296 15.268 10.4056 15.33 10.4816 15.304C 13.5466 14.226 15.7496 11.302 15.7496 7.87304C 15.7486 3.52504 12.2036 -0.0129641 7.85162 3.59323e-05ZM 7.70861 3.61304C 10.1386 3.51904 12.1446 5.46804 12.1446 7.87704C 12.1446 9.10204 11.6256 10.208 10.7956 10.988C 10.7256 11.054 10.6876 11.148 10.6926 11.244C 10.7086 11.537 10.7026 11.822 10.6836 12.143C 10.6786 12.229 10.7746 12.283 10.8456 12.235C 12.2366 11.284 13.1516 9.68604 13.1516 7.87704C 13.1516 4.89904 10.6706 2.48904 7.66762 2.60604C 4.87662 2.71404 2.63661 5.01503 2.60161 7.80903C 2.57861 9.64604 3.49862 11.273 4.90762 12.236C 4.97862 12.284 5.07462 12.229 5.06861 12.144C 5.04861 11.822 5.04261 11.537 5.05962 11.244C 5.06462 11.148 5.02762 11.054 4.95662 10.988C 4.10062 10.185 3.57562 9.03404 3.60962 7.76304C 3.67062 5.52604 5.47361 3.69904 7.70861 3.61304Z"/>
</defs>
</svg>
